<?xml version="1.0" encoding="utf-8" standalone="no"?>
<!DOCTYPE svg PUBLIC "-//W3C//DTD SVG 1.1//EN"
  "http://www.w3.org/Graphics/SVG/1.1/DTD/svg11.dtd">
<!-- Created with matplotlib (http://matplotlib.org/) -->
<svg height="468pt" version="1.1" viewBox="0 0 396 468" width="396pt" xmlns="http://www.w3.org/2000/svg" xmlns:xlink="http://www.w3.org/1999/xlink">
 <defs>
  <style type="text/css">
*{stroke-linecap:butt;stroke-linejoin:round;}
  </style>
 </defs>
 <g id="figure_1">
  <g id="patch_1">
   <path d="
M0 468
L396 468
L396 0
L0 0
z
" style="fill:#ffffff;"/>
  </g>
  <g id="axes_1">
   <g id="patch_2">
    <path d="
M91.08 421.2
L384.12 421.2
L384.12 23.4
L91.08 23.4
z
" style="fill:#ffffff;"/>
   </g>
   <g id="matplotlib.axis_1">
    <g id="xtick_1">
     <g id="line2d_1">
      <defs>
       <path d="
M0 0
L0 0" id="m219da94a98" style="stroke:#262626;"/>
      </defs>
      <g>
       <use style="fill:#262626;stroke:#262626;" x="164.34" xlink:href="#m219da94a98" y="421.2"/>
      </g>
     </g>
     <g id="text_1">
      <!-- BSL -->
      <defs>
       <path d="
M34.5781 41.4062
Q40.7188 41.4062 44.1406 43.1094
Q49.5156 45.7969 49.5156 52.7812
Q49.5156 59.8125 43.7969 62.25
Q40.5781 63.625 34.2344 63.625
L16.8906 63.625
L16.8906 41.4062
z

M37.8438 8.29688
Q46.7812 8.29688 50.5938 13.4844
Q52.9844 16.75 52.9844 21.3906
Q52.9844 29.2031 46 32.0312
Q42.2812 33.5469 36.1875 33.5469
L16.8906 33.5469
L16.8906 8.29688
z

M7.375 71.7344
L38.1875 71.7344
Q50.7812 71.7344 56.1094 64.2031
Q59.2344 59.7656 59.2344 53.9531
Q59.2344 47.1719 55.375 42.8281
Q53.375 40.5312 49.6094 38.625
Q55.125 36.5312 57.8594 33.8906
Q62.7031 29.2031 62.7031 20.9531
Q62.7031 14.0156 58.3438 8.40625
Q51.8594 0 37.7031 0
L7.375 0
z
" id="Helvetica-42"/>
       <path d="
M7.625 71.7344
L17.3281 71.7344
L17.3281 8.54688
L53.6562 8.54688
L53.6562 0
L7.625 0
z
" id="Helvetica-4c"/>
       <path d="
M13.9688 23.1406
Q14.3125 17.0469 16.8438 13.2344
Q21.6875 6.10938 33.8906 6.10938
Q39.3594 6.10938 43.8438 7.67188
Q52.5469 10.6875 52.5469 18.5
Q52.5469 24.3594 48.875 26.8594
Q45.1719 29.2969 37.25 31.1094
L27.5469 33.2969
Q18.0156 35.4531 14.0625 38.0312
Q7.23438 42.5312 7.23438 51.4688
Q7.23438 61.1406 13.9219 67.3281
Q20.6094 73.5312 32.8594 73.5312
Q44.1406 73.5312 52.0156 68.0781
Q59.9062 62.6406 59.9062 50.6875
L50.7812 50.6875
Q50.0469 56.4531 47.6562 59.5156
Q43.2188 65.1406 32.5625 65.1406
Q23.9688 65.1406 20.2031 61.5156
Q16.4531 57.9062 16.4531 53.125
Q16.4531 47.8594 20.8438 45.4062
Q23.7344 43.8438 33.8906 41.5
L43.9531 39.2031
Q51.2188 37.5469 55.1719 34.6719
Q62.0156 29.6406 62.0156 20.0625
Q62.0156 8.15625 53.3438 3.03125
Q44.6719 -2.09375 33.2031 -2.09375
Q19.8281 -2.09375 12.25 4.73438
Q4.6875 11.5312 4.82812 23.1406
z

M33.5938 73.6875
z
" id="Helvetica-53"/>
      </defs>
      <g style="fill:#262626;" transform="translate(139.18375 448.285625)scale(0.28 -0.28)">
       <use xlink:href="#Helvetica-42"/>
       <use x="66.69921875" xlink:href="#Helvetica-53"/>
       <use x="133.3984375" xlink:href="#Helvetica-4c"/>
      </g>
     </g>
    </g>
    <g id="xtick_2">
     <g id="line2d_2">
      <g>
       <use style="fill:#262626;stroke:#262626;" x="310.86" xlink:href="#m219da94a98" y="421.2"/>
      </g>
     </g>
     <g id="text_2">
      <!-- PNL -->
      <defs>
       <path d="
M8.54688 71.7344
L40.8281 71.7344
Q50.3906 71.7344 56.25 66.3281
Q62.1094 60.9375 62.1094 51.1719
Q62.1094 42.7812 56.875 36.5469
Q51.6562 30.3281 40.8281 30.3281
L18.2656 30.3281
L18.2656 0
L8.54688 0
z

M52.2969 51.125
Q52.2969 59.0312 46.4375 61.8594
Q43.2188 63.375 37.5938 63.375
L18.2656 63.375
L18.2656 38.5312
L37.5938 38.5312
Q44.1406 38.5312 48.2188 41.3125
Q52.2969 44.0938 52.2969 51.125
z
" id="Helvetica-50"/>
       <path d="
M7.625 71.7344
L19.0938 71.7344
L55.3281 13.625
L55.3281 71.7344
L64.5469 71.7344
L64.5469 0
L53.6562 0
L16.8906 58.0625
L16.8906 0
L7.625 0
z

M35.4531 71.7344
z
" id="Helvetica-4e"/>
      </defs>
      <g style="fill:#262626;" transform="translate(285.095625 448.285625)scale(0.28 -0.28)">
       <use xlink:href="#Helvetica-50"/>
       <use x="66.69921875" xlink:href="#Helvetica-4e"/>
       <use x="138.916015625" xlink:href="#Helvetica-4c"/>
      </g>
     </g>
    </g>
   </g>
   <g id="matplotlib.axis_2">
    <g id="ytick_1">
     <g id="line2d_3">
      <g>
       <use style="fill:#262626;stroke:#262626;" x="91.08" xlink:href="#m219da94a98" y="421.2"/>
      </g>
     </g>
     <g id="text_3">
      <!-- 550 -->
      <defs>
       <path d="
M27.0469 69.9219
Q40.625 69.9219 46.6875 58.7344
Q51.375 50.0938 51.375 35.0625
Q51.375 20.7969 47.125 11.4688
Q40.9688 -1.90625 27 -1.90625
Q14.4062 -1.90625 8.25 9.03125
Q3.125 18.1719 3.125 33.5469
Q3.125 45.4531 6.20312 54
Q11.9688 69.9219 27.0469 69.9219
z

M26.9531 6.10938
Q33.7969 6.10938 37.8438 12.1562
Q41.8906 18.2188 41.8906 34.7188
Q41.8906 46.625 38.9531 54.3125
Q36.0312 62.0156 27.5938 62.0156
Q19.8281 62.0156 16.2344 54.7031
Q12.6406 47.4062 12.6406 33.2031
Q12.6406 22.5156 14.9375 16.0156
Q18.4531 6.10938 26.9531 6.10938
z
" id="Helvetica-30"/>
       <path d="
M12.3594 17.8281
Q13.2344 10.2969 19.3438 7.42188
Q22.4688 5.95312 26.5625 5.95312
Q34.375 5.95312 38.125 10.9375
Q41.8906 15.9219 41.8906 21.9688
Q41.8906 29.2969 37.4219 33.2969
Q32.9531 37.3125 26.7031 37.3125
Q22.1719 37.3125 18.9219 35.5469
Q15.6719 33.7969 13.375 30.6719
L5.76562 31.1094
L11.0781 68.75
L47.4062 68.75
L47.4062 60.25
L17.6719 60.25
L14.7031 40.8281
Q17.1406 42.6719 19.3438 43.6094
Q23.25 45.2188 28.375 45.2188
Q37.9844 45.2188 44.6719 39.0156
Q51.375 32.8125 51.375 23.2969
Q51.375 13.375 45.2344 5.79688
Q39.1094 -1.76562 25.6875 -1.76562
Q17.1406 -1.76562 10.5625 3.04688
Q4 7.85938 3.21875 17.8281
z
" id="Helvetica-35"/>
      </defs>
      <g style="fill:#262626;" transform="translate(45.83 427.306875)scale(0.24 -0.24)">
       <use xlink:href="#Helvetica-35"/>
       <use x="55.615234375" xlink:href="#Helvetica-35"/>
       <use x="111.23046875" xlink:href="#Helvetica-30"/>
      </g>
     </g>
    </g>
    <g id="ytick_2">
     <g id="line2d_4">
      <g>
       <use style="fill:#262626;stroke:#262626;" x="91.08" xlink:href="#m219da94a98" y="288.6"/>
      </g>
     </g>
     <g id="text_4">
      <!-- 560 -->
      <defs>
       <path d="
M29.25 70.2188
Q40.9688 70.2188 45.5781 64.1406
Q50.2031 58.0625 50.2031 51.6094
L41.5 51.6094
Q40.7188 55.7656 39.0156 58.1094
Q35.8438 62.5 29.3906 62.5
Q22.0156 62.5 17.6719 55.6875
Q13.3281 48.875 12.8438 36.1875
Q15.875 40.625 20.4531 42.8281
Q24.6562 44.7812 29.8281 44.7812
Q38.625 44.7812 45.1562 39.1562
Q51.7031 33.5469 51.7031 22.4062
Q51.7031 12.8906 45.5 5.53125
Q39.3125 -1.8125 27.8281 -1.8125
Q18.0156 -1.8125 10.8906 5.64062
Q3.76562 13.0938 3.76562 30.7188
Q3.76562 43.75 6.9375 52.8281
Q13.0312 70.2188 29.25 70.2188
z

M28.6094 6
Q35.5469 6 38.9844 10.6562
Q42.4375 15.3281 42.4375 21.6875
Q42.4375 27.0469 39.3594 31.9062
Q36.2812 36.7656 28.1719 36.7656
Q22.5156 36.7656 18.2344 33
Q13.9688 29.25 13.9688 21.6875
Q13.9688 15.0469 17.8438 10.5156
Q21.7344 6 28.6094 6
z
" id="Helvetica-36"/>
      </defs>
      <g style="fill:#262626;" transform="translate(45.83 294.706875)scale(0.24 -0.24)">
       <use xlink:href="#Helvetica-35"/>
       <use x="55.615234375" xlink:href="#Helvetica-36"/>
       <use x="111.23046875" xlink:href="#Helvetica-30"/>
      </g>
     </g>
    </g>
    <g id="ytick_3">
     <g id="line2d_5">
      <g>
       <use style="fill:#262626;stroke:#262626;" x="91.08" xlink:href="#m219da94a98" y="156.0"/>
      </g>
     </g>
     <g id="text_5">
      <!-- 570 -->
      <defs>
       <path d="
M52.2969 68.75
L52.2969 61.0781
Q48.9219 57.8125 43.3281 49.7031
Q37.75 41.6094 33.4531 32.2344
Q29.2031 23.0938 27 15.5781
Q25.5938 10.75 23.3438 0
L13.625 0
Q16.9375 20.0156 28.2656 39.8438
Q34.9688 51.4688 42.3281 59.9062
L3.65625 59.9062
L3.65625 68.75
z
" id="Helvetica-37"/>
      </defs>
      <g style="fill:#262626;" transform="translate(45.83 162.106875)scale(0.24 -0.24)">
       <use xlink:href="#Helvetica-35"/>
       <use x="55.615234375" xlink:href="#Helvetica-37"/>
       <use x="111.23046875" xlink:href="#Helvetica-30"/>
      </g>
     </g>
    </g>
    <g id="ytick_4">
     <g id="line2d_6">
      <g>
       <use style="fill:#262626;stroke:#262626;" x="91.08" xlink:href="#m219da94a98" y="23.4"/>
      </g>
     </g>
     <g id="text_6">
      <!-- 580 -->
      <defs>
       <path d="
M27.2031 40.625
Q33.0156 40.625 36.2812 43.875
Q39.5469 47.125 39.5469 51.6094
Q39.5469 55.5156 36.4219 58.7812
Q33.2969 62.0625 26.9062 62.0625
Q20.5625 62.0625 17.7188 58.7812
Q14.8906 55.5156 14.8906 51.125
Q14.8906 46.1875 18.5469 43.4062
Q22.2188 40.625 27.2031 40.625
z

M27.7344 6
Q33.8438 6 37.8594 9.29688
Q41.8906 12.5938 41.8906 19.1406
Q41.8906 25.9219 37.7344 29.4375
Q33.5938 32.9531 27.0938 32.9531
Q20.7969 32.9531 16.8125 29.3594
Q12.8438 25.7812 12.8438 19.4375
Q12.8438 13.9688 16.4844 9.98438
Q20.125 6 27.7344 6
z

M15.2344 37.25
Q11.5781 38.8125 9.51562 40.9219
Q5.67188 44.8281 5.67188 51.0781
Q5.67188 58.8906 11.3281 64.5
Q17 70.125 27.3906 70.125
Q37.4531 70.125 43.1562 64.8125
Q48.875 59.5156 48.875 52.4375
Q48.875 45.9062 45.5625 41.8438
Q43.7031 39.5469 39.7969 37.3594
Q44.1406 35.3594 46.625 32.7656
Q51.2656 27.875 51.2656 20.0625
Q51.2656 10.8438 45.0625 4.42188
Q38.875 -2 27.5469 -2
Q17.3281 -2 10.2656 3.53125
Q3.21875 9.07812 3.21875 19.625
Q3.21875 25.8281 6.25 30.3438
Q9.28125 34.8594 15.2344 37.25
z
" id="Helvetica-38"/>
      </defs>
      <g style="fill:#262626;" transform="translate(45.83 29.506875)scale(0.24 -0.24)">
       <use xlink:href="#Helvetica-35"/>
       <use x="55.615234375" xlink:href="#Helvetica-38"/>
       <use x="111.23046875" xlink:href="#Helvetica-30"/>
      </g>
     </g>
    </g>
    <g id="text_7">
     <!-- Go RT (ms) -->
     <defs>
      <path id="Helvetica-20"/>
      <path d="
M59.8125 71.7344
L59.8125 63.1875
L35.6406 63.1875
L35.6406 0
L25.7812 0
L25.7812 63.1875
L1.60938 63.1875
L1.60938 71.7344
z
" id="Helvetica-54"/>
      <path d="
M40.9688 38.875
Q47.7969 38.875 51.7812 41.6094
Q55.7656 44.3438 55.7656 51.4688
Q55.7656 59.125 50.2031 61.9219
Q47.2188 63.375 42.2344 63.375
L18.5 63.375
L18.5 38.875
z

M8.79688 71.7344
L42 71.7344
Q50.2031 71.7344 55.5156 69.3438
Q65.625 64.75 65.625 52.3906
Q65.625 45.9531 62.9531 41.8438
Q60.2969 37.75 55.5156 35.25
Q59.7188 33.5469 61.8438 30.7656
Q63.9688 27.9844 64.2031 21.7344
L64.5469 12.1094
Q64.7031 8.01562 65.2344 6
Q66.1094 2.59375 68.3594 1.60938
L68.3594 0
L56.4531 0
Q55.9531 0.921875 55.6562 2.39062
Q55.375 3.85938 55.1719 8.0625
L54.5938 20.0156
Q54.25 27.0469 49.3594 29.4375
Q46.5781 30.7656 40.625 30.7656
L18.5 30.7656
L18.5 0
L8.79688 0
z
" id="Helvetica-52"/>
      <path d="
M29.5938 72.9062
Q21.9219 58.0156 19.625 50.9844
Q16.1562 40.2812 16.1562 26.2656
Q16.1562 12.1094 20.125 0.390625
Q22.5625 -6.84375 29.7344 -20.4062
L23.8281 -20.4062
Q16.7031 -9.28125 14.9844 -6.20312
Q13.2812 -3.125 11.2812 2.15625
Q8.54688 9.375 7.46875 17.5781
Q6.9375 21.8281 6.9375 25.6875
Q6.9375 40.1406 11.4688 51.4219
Q14.3594 58.5938 23.4844 72.9062
z
" id="Helvetica-28"/>
      <path d="
M3.46875 -20.4062
Q11.2344 -5.28125 13.4844 1.65625
Q16.8906 12.1562 16.8906 26.2656
Q16.8906 40.375 12.9375 52.0938
Q10.5 59.3281 3.32812 72.9062
L9.23438 72.9062
Q16.75 60.8906 18.3281 58.0781
Q19.9219 55.2812 21.7812 50.3438
Q24.125 44.2344 25.125 38.2812
Q26.125 32.3281 26.125 26.8125
Q26.125 12.3594 21.5312 1.03125
Q18.6562 -6.25 9.57812 -20.4062
z
" id="Helvetica-29"/>
      <path d="
M11.6719 16.4062
Q12.0625 12.0156 13.875 9.67188
Q17.1875 5.42188 25.3906 5.42188
Q30.2812 5.42188 33.9844 7.54688
Q37.7031 9.67188 37.7031 14.1094
Q37.7031 17.4844 34.7188 19.2344
Q32.8125 20.3125 27.2031 21.7344
L20.2188 23.4844
Q13.5312 25.1406 10.3594 27.2031
Q4.6875 30.7656 4.6875 37.0625
Q4.6875 44.4844 10.0312 49.0625
Q15.375 53.6562 24.4219 53.6562
Q36.2344 53.6562 41.4531 46.7344
Q44.7344 42.3281 44.625 37.25
L36.3281 37.25
Q36.0781 40.2344 34.2344 42.6719
Q31.2031 46.1406 23.7344 46.1406
Q18.75 46.1406 16.1875 44.2344
Q13.625 42.3281 13.625 39.2031
Q13.625 35.7969 17 33.7344
Q18.9531 32.5156 22.75 31.5938
L28.5625 30.1719
Q38.0312 27.875 41.2656 25.7344
Q46.3906 22.3594 46.3906 15.1406
Q46.3906 8.15625 41.0938 3.07812
Q35.7969 -2 24.9531 -2
Q13.2812 -2 8.42188 3.29688
Q3.5625 8.59375 3.21875 16.4062
z

M24.6562 53.5625
z
" id="Helvetica-73"/>
      <path d="
M38.625 73.5781
Q48.7344 73.5781 56.1094 69.6719
Q66.7969 64.0625 69.1875 50
L59.5781 50
Q57.8125 57.8594 52.2969 61.4531
Q46.7812 65.0469 38.375 65.0469
Q28.4219 65.0469 21.6094 57.5625
Q14.7969 50.0938 14.7969 35.2969
Q14.7969 22.5156 20.4062 14.4844
Q26.0312 6.45312 38.7188 6.45312
Q48.4375 6.45312 54.8125 12.0781
Q61.1875 17.7188 61.3281 30.3281
L38.875 30.3281
L38.875 38.375
L70.3594 38.375
L70.3594 0
L64.1094 0
L61.7656 9.23438
Q56.8438 3.8125 53.0312 1.70312
Q46.625 -1.90625 36.7656 -1.90625
Q24.0312 -1.90625 14.8438 6.34375
Q4.82812 16.7031 4.82812 34.7656
Q4.82812 52.7812 14.5938 63.4219
Q23.875 73.5781 38.625 73.5781
z

M37.0156 73.6875
z
" id="Helvetica-47"/>
      <path d="
M6.45312 52.2969
L15.1406 52.2969
L15.1406 44.875
Q18.2656 48.7344 20.7969 50.4844
Q25.1406 53.4688 30.6719 53.4688
Q36.9219 53.4688 40.7188 50.3906
Q42.875 48.6406 44.625 45.2188
Q47.5625 49.4219 51.5156 51.4375
Q55.4688 53.4688 60.4062 53.4688
Q70.9531 53.4688 74.75 45.8438
Q76.8125 41.75 76.8125 34.8125
L76.8125 0
L67.6719 0
L67.6719 36.3281
Q67.6719 41.5469 65.0625 43.5
Q62.4531 45.4531 58.6875 45.4531
Q53.5156 45.4531 49.7812 41.9844
Q46.0469 38.5312 46.0469 30.4219
L46.0469 0
L37.1094 0
L37.1094 34.125
Q37.1094 39.4531 35.8438 41.8906
Q33.8438 45.5625 28.375 45.5625
Q23.3906 45.5625 19.3125 41.7031
Q15.2344 37.8438 15.2344 27.7344
L15.2344 0
L6.45312 0
z
" id="Helvetica-6d"/>
      <path d="
M27.2031 5.67188
Q35.9375 5.67188 39.1875 12.2812
Q42.4375 18.8906 42.4375 27
Q42.4375 34.3281 40.0938 38.9219
Q36.375 46.1406 27.2969 46.1406
Q19.2344 46.1406 15.5781 39.9844
Q11.9219 33.8438 11.9219 25.1406
Q11.9219 16.7969 15.5781 11.2344
Q19.2344 5.67188 27.2031 5.67188
z

M27.5469 53.8125
Q37.6406 53.8125 44.625 47.0625
Q51.6094 40.3281 51.6094 27.25
Q51.6094 14.5938 45.4531 6.34375
Q39.3125 -1.90625 26.375 -1.90625
Q15.5781 -1.90625 9.21875 5.39062
Q2.875 12.7031 2.875 25
Q2.875 38.1875 9.5625 46
Q16.2656 53.8125 27.5469 53.8125
z

M27.25 53.5625
z
" id="Helvetica-6f"/>
     </defs>
     <g style="fill:#262626;" transform="translate(34.576875 299.5453125)rotate(-90.0)scale(0.3 -0.3)">
      <use xlink:href="#Helvetica-47"/>
      <use x="77.783203125" xlink:href="#Helvetica-6f"/>
      <use x="133.3984375" xlink:href="#Helvetica-20"/>
      <use x="161.181640625" xlink:href="#Helvetica-52"/>
      <use x="233.3984375" xlink:href="#Helvetica-54"/>
      <use x="294.482421875" xlink:href="#Helvetica-20"/>
      <use x="322.265625" xlink:href="#Helvetica-28"/>
      <use x="355.56640625" xlink:href="#Helvetica-6d"/>
      <use x="438.8671875" xlink:href="#Helvetica-73"/>
      <use x="488.8671875" xlink:href="#Helvetica-29"/>
     </g>
    </g>
   </g>
   <g id="patch_3">
    <path clip-path="url(#p45c12b3cad)" d="
M105.732 7714.2
L222.948 7714.2
L222.948 214.012
L105.732 214.012
z
" style="fill:#0000cd;opacity:0.6;stroke:#000000;stroke-width:0.3;"/>
   </g>
   <g id="patch_4">
    <path clip-path="url(#p45c12b3cad)" d="
M252.252 7714.2
L369.468 7714.2
L369.468 110.717
L252.252 110.717
z
" style="fill:#e60000;opacity:0.6;stroke:#e60000;stroke-width:0.3;"/>
   </g>
   <g id="LineCollection_1">
    <defs>
     <path d="
M164.34 -215.534
L164.34 -292.441" id="C0_0_27ba915464"/>
     <path d="
M310.86 -325.459
L310.86 -389.107" id="C0_1_fd61dbbc04"/>
    </defs>
    <g clip-path="url(#p45c12b3cad)">
     <use style="fill:none;stroke:#000000;stroke-width:3.0;" x="0.0" xlink:href="#C0_0_27ba915464" y="468.0"/>
    </g>
    <g clip-path="url(#p45c12b3cad)">
     <use style="fill:none;stroke:#000000;stroke-width:3.0;" x="0.0" xlink:href="#C0_1_fd61dbbc04" y="468.0"/>
    </g>
   </g>
   <g id="line2d_7">
    <defs>
     <path d="
M3 1.83697e-16
L-3 -1.83697e-16" id="mf6afe704e8"/>
    </defs>
    <g clip-path="url(#p45c12b3cad)">
     <use x="164.34" xlink:href="#mf6afe704e8" y="252.4665"/>
     <use x="310.86" xlink:href="#mf6afe704e8" y="142.5411"/>
    </g>
   </g>
   <g id="line2d_8">
    <g clip-path="url(#p45c12b3cad)">
     <use x="164.34" xlink:href="#mf6afe704e8" y="175.5585"/>
     <use x="310.86" xlink:href="#mf6afe704e8" y="78.8931"/>
    </g>
   </g>
   <g id="line2d_9">
    <path clip-path="url(#p45c12b3cad)" d="
M164.34 248.693" style="fill:none;opacity:0.85;"/>
    <defs>
     <path d="
M0 11
C2.91723 11 5.71538 9.84097 7.77817 7.77817
C9.84097 5.71538 11 2.91723 11 0
C11 -2.91723 9.84097 -5.71538 7.77817 -7.77817
C5.71538 -9.84097 2.91723 -11 0 -11
C-2.91723 -11 -5.71538 -9.84097 -7.77817 -7.77817
C-9.84097 -5.71538 -11 -2.91723 -11 0
C-11 2.91723 -9.84097 5.71538 -7.77817 7.77817
C-5.71538 9.84097 -2.91723 11 0 11
z
" id="ma446551154" style="stroke:#000080;stroke-width:2;"/>
    </defs>
    <g clip-path="url(#p45c12b3cad)">
     <use style="fill:#1975ff;opacity:0.85;stroke:#000080;stroke-width:2;" x="164.34" xlink:href="#ma446551154" y="248.692696642"/>
    </g>
   </g>
   <g id="line2d_10">
    <path clip-path="url(#p45c12b3cad)" d="
M310.86 139.404" style="fill:none;opacity:0.85;"/>
    <defs>
     <path d="
M0 11
C2.91723 11 5.71538 9.84097 7.77817 7.77817
C9.84097 5.71538 11 2.91723 11 0
C11 -2.91723 9.84097 -5.71538 7.77817 -7.77817
C5.71538 -9.84097 2.91723 -11 0 -11
C-2.91723 -11 -5.71538 -9.84097 -7.77817 -7.77817
C-9.84097 -5.71538 -11 -2.91723 -11 0
C-11 2.91723 -9.84097 5.71538 -7.77817 7.77817
C-5.71538 9.84097 -2.91723 11 0 11
z
" id="mf264e679c0" style="stroke:#b22222;stroke-width:2;"/>
    </defs>
    <g clip-path="url(#p45c12b3cad)">
     <use style="fill:#e6005c;opacity:0.85;stroke:#b22222;stroke-width:2;" x="310.86" xlink:href="#mf264e679c0" y="139.403838445"/>
    </g>
   </g>
   <g id="patch_5">
    <path d="
M91.08 421.2
L384.12 421.2" style="fill:none;stroke:#262626;stroke-width:1.25;"/>
   </g>
   <g id="patch_6">
    <path d="
M91.08 421.2
L91.08 23.4" style="fill:none;stroke:#262626;stroke-width:1.25;"/>
   </g>
  </g>
 </g>
 <defs>
  <clipPath id="p45c12b3cad">
   <rect height="397.8" width="293.04" x="91.08" y="23.4"/>
  </clipPath>
 </defs>
</svg>
