<?xml version="1.0" encoding="utf-8" standalone="no"?>
<!DOCTYPE svg PUBLIC "-//W3C//DTD SVG 1.1//EN"
  "http://www.w3.org/Graphics/SVG/1.1/DTD/svg11.dtd">
<!-- Created with matplotlib (http://matplotlib.org/) -->
<svg height="468pt" version="1.1" viewBox="0 0 396 468" width="396pt" xmlns="http://www.w3.org/2000/svg" xmlns:xlink="http://www.w3.org/1999/xlink">
 <defs>
  <style type="text/css">
*{stroke-linecap:butt;stroke-linejoin:round;}
  </style>
 </defs>
 <g id="figure_1">
  <g id="patch_1">
   <path d="
M0 468
L396 468
L396 0
L0 0
z
" style="fill:#ffffff;"/>
  </g>
  <g id="axes_1">
   <g id="patch_2">
    <path d="
M91.08 421.2
L384.12 421.2
L384.12 23.4
L91.08 23.4
z
" style="fill:#ffffff;"/>
   </g>
   <g id="matplotlib.axis_1">
    <g id="xtick_1">
     <g id="line2d_1">
      <defs>
       <path d="
M0 0
L0 0" id="m219da94a98" style="stroke:#262626;"/>
      </defs>
      <g>
       <use style="fill:#262626;stroke:#262626;" x="164.34" xlink:href="#m219da94a98" y="421.2"/>
      </g>
     </g>
     <g id="text_1">
      <!-- BSL -->
      <defs>
       <path d="
M34.5781 41.4062
Q40.7188 41.4062 44.1406 43.1094
Q49.5156 45.7969 49.5156 52.7812
Q49.5156 59.8125 43.7969 62.25
Q40.5781 63.625 34.2344 63.625
L16.8906 63.625
L16.8906 41.4062
z

M37.8438 8.29688
Q46.7812 8.29688 50.5938 13.4844
Q52.9844 16.75 52.9844 21.3906
Q52.9844 29.2031 46 32.0312
Q42.2812 33.5469 36.1875 33.5469
L16.8906 33.5469
L16.8906 8.29688
z

M7.375 71.7344
L38.1875 71.7344
Q50.7812 71.7344 56.1094 64.2031
Q59.2344 59.7656 59.2344 53.9531
Q59.2344 47.1719 55.375 42.8281
Q53.375 40.5312 49.6094 38.625
Q55.125 36.5312 57.8594 33.8906
Q62.7031 29.2031 62.7031 20.9531
Q62.7031 14.0156 58.3438 8.40625
Q51.8594 0 37.7031 0
L7.375 0
z
" id="Helvetica-42"/>
       <path d="
M7.625 71.7344
L17.3281 71.7344
L17.3281 8.54688
L53.6562 8.54688
L53.6562 0
L7.625 0
z
" id="Helvetica-4c"/>
       <path d="
M13.9688 23.1406
Q14.3125 17.0469 16.8438 13.2344
Q21.6875 6.10938 33.8906 6.10938
Q39.3594 6.10938 43.8438 7.67188
Q52.5469 10.6875 52.5469 18.5
Q52.5469 24.3594 48.875 26.8594
Q45.1719 29.2969 37.25 31.1094
L27.5469 33.2969
Q18.0156 35.4531 14.0625 38.0312
Q7.23438 42.5312 7.23438 51.4688
Q7.23438 61.1406 13.9219 67.3281
Q20.6094 73.5312 32.8594 73.5312
Q44.1406 73.5312 52.0156 68.0781
Q59.9062 62.6406 59.9062 50.6875
L50.7812 50.6875
Q50.0469 56.4531 47.6562 59.5156
Q43.2188 65.1406 32.5625 65.1406
Q23.9688 65.1406 20.2031 61.5156
Q16.4531 57.9062 16.4531 53.125
Q16.4531 47.8594 20.8438 45.4062
Q23.7344 43.8438 33.8906 41.5
L43.9531 39.2031
Q51.2188 37.5469 55.1719 34.6719
Q62.0156 29.6406 62.0156 20.0625
Q62.0156 8.15625 53.3438 3.03125
Q44.6719 -2.09375 33.2031 -2.09375
Q19.8281 -2.09375 12.25 4.73438
Q4.6875 11.5312 4.82812 23.1406
z

M33.5938 73.6875
z
" id="Helvetica-53"/>
      </defs>
      <g style="fill:#262626;" transform="translate(139.18375 448.285625)scale(0.28 -0.28)">
       <use xlink:href="#Helvetica-42"/>
       <use x="66.69921875" xlink:href="#Helvetica-53"/>
       <use x="133.3984375" xlink:href="#Helvetica-4c"/>
      </g>
     </g>
    </g>
    <g id="xtick_2">
     <g id="line2d_2">
      <g>
       <use style="fill:#262626;stroke:#262626;" x="310.86" xlink:href="#m219da94a98" y="421.2"/>
      </g>
     </g>
     <g id="text_2">
      <!-- PNL -->
      <defs>
       <path d="
M8.54688 71.7344
L40.8281 71.7344
Q50.3906 71.7344 56.25 66.3281
Q62.1094 60.9375 62.1094 51.1719
Q62.1094 42.7812 56.875 36.5469
Q51.6562 30.3281 40.8281 30.3281
L18.2656 30.3281
L18.2656 0
L8.54688 0
z

M52.2969 51.125
Q52.2969 59.0312 46.4375 61.8594
Q43.2188 63.375 37.5938 63.375
L18.2656 63.375
L18.2656 38.5312
L37.5938 38.5312
Q44.1406 38.5312 48.2188 41.3125
Q52.2969 44.0938 52.2969 51.125
z
" id="Helvetica-50"/>
       <path d="
M7.625 71.7344
L19.0938 71.7344
L55.3281 13.625
L55.3281 71.7344
L64.5469 71.7344
L64.5469 0
L53.6562 0
L16.8906 58.0625
L16.8906 0
L7.625 0
z

M35.4531 71.7344
z
" id="Helvetica-4e"/>
      </defs>
      <g style="fill:#262626;" transform="translate(285.095625 448.285625)scale(0.28 -0.28)">
       <use xlink:href="#Helvetica-50"/>
       <use x="66.69921875" xlink:href="#Helvetica-4e"/>
       <use x="138.916015625" xlink:href="#Helvetica-4c"/>
      </g>
     </g>
    </g>
   </g>
   <g id="matplotlib.axis_2">
    <g id="ytick_1">
     <g id="line2d_3">
      <g>
       <use style="fill:#262626;stroke:#262626;" x="91.08" xlink:href="#m219da94a98" y="421.2"/>
      </g>
     </g>
     <g id="text_3">
      <!-- 0.34 -->
      <defs>
       <path d="
M25.9844 -1.90625
Q13.5781 -1.90625 7.98438 4.90625
Q2.39062 11.7188 2.39062 21.4844
L11.5781 21.4844
Q12.1562 14.7031 14.1094 11.625
Q17.5312 6.10938 26.4688 6.10938
Q33.4062 6.10938 37.5938 9.8125
Q41.7969 13.5312 41.7969 19.3906
Q41.7969 26.6094 37.375 29.4844
Q32.9531 32.375 25.0938 32.375
Q24.2188 32.375 23.3125 32.3438
Q22.4062 32.3281 21.4844 32.2812
L21.4844 40.0469
Q22.8594 39.8906 23.7812 39.8438
Q24.7031 39.7969 25.7812 39.7969
Q30.7188 39.7969 33.8906 41.3594
Q39.4531 44.0938 39.4531 51.125
Q39.4531 56.3438 35.7344 59.1719
Q32.0312 62.0156 27.0938 62.0156
Q18.3125 62.0156 14.9375 56.1562
Q13.0938 52.9375 12.8438 46.9688
L4.15625 46.9688
Q4.15625 54.7812 7.28125 60.25
Q12.6406 70.0156 26.1719 70.0156
Q36.8594 70.0156 42.7188 65.25
Q48.5781 60.5 48.5781 51.4688
Q48.5781 45.0156 45.125 41.0156
Q42.9688 38.5312 39.5469 37.1094
Q45.0625 35.5938 48.1562 31.2656
Q51.2656 26.9531 51.2656 20.7031
Q51.2656 10.6875 44.6719 4.39062
Q38.0938 -1.90625 25.9844 -1.90625
z
" id="Helvetica-33"/>
       <path d="
M27.0469 69.9219
Q40.625 69.9219 46.6875 58.7344
Q51.375 50.0938 51.375 35.0625
Q51.375 20.7969 47.125 11.4688
Q40.9688 -1.90625 27 -1.90625
Q14.4062 -1.90625 8.25 9.03125
Q3.125 18.1719 3.125 33.5469
Q3.125 45.4531 6.20312 54
Q11.9688 69.9219 27.0469 69.9219
z

M26.9531 6.10938
Q33.7969 6.10938 37.8438 12.1562
Q41.8906 18.2188 41.8906 34.7188
Q41.8906 46.625 38.9531 54.3125
Q36.0312 62.0156 27.5938 62.0156
Q19.8281 62.0156 16.2344 54.7031
Q12.6406 47.4062 12.6406 33.2031
Q12.6406 22.5156 14.9375 16.0156
Q18.4531 6.10938 26.9531 6.10938
z
" id="Helvetica-30"/>
       <path d="
M8.54688 10.6406
L18.75 10.6406
L18.75 0
L8.54688 0
z
" id="Helvetica-2e"/>
       <path d="
M33.0625 24.75
L33.0625 56.4531
L10.6406 24.75
z

M33.2031 0
L33.2031 17.0938
L2.54688 17.0938
L2.54688 25.6875
L34.5781 70.125
L42 70.125
L42 24.75
L52.2969 24.75
L52.2969 17.0938
L42 17.0938
L42 0
z
" id="Helvetica-34"/>
      </defs>
      <g style="fill:#262626;" transform="translate(38.91875 427.306875)scale(0.24 -0.24)">
       <use xlink:href="#Helvetica-30"/>
       <use x="55.615234375" xlink:href="#Helvetica-2e"/>
       <use x="83.3984375" xlink:href="#Helvetica-33"/>
       <use x="139.013671875" xlink:href="#Helvetica-34"/>
      </g>
     </g>
    </g>
    <g id="ytick_2">
     <g id="line2d_4">
      <g>
       <use style="fill:#262626;stroke:#262626;" x="91.08" xlink:href="#m219da94a98" y="288.6"/>
      </g>
     </g>
     <g id="text_4">
      <!-- 0.35 -->
      <defs>
       <path d="
M12.3594 17.8281
Q13.2344 10.2969 19.3438 7.42188
Q22.4688 5.95312 26.5625 5.95312
Q34.375 5.95312 38.125 10.9375
Q41.8906 15.9219 41.8906 21.9688
Q41.8906 29.2969 37.4219 33.2969
Q32.9531 37.3125 26.7031 37.3125
Q22.1719 37.3125 18.9219 35.5469
Q15.6719 33.7969 13.375 30.6719
L5.76562 31.1094
L11.0781 68.75
L47.4062 68.75
L47.4062 60.25
L17.6719 60.25
L14.7031 40.8281
Q17.1406 42.6719 19.3438 43.6094
Q23.25 45.2188 28.375 45.2188
Q37.9844 45.2188 44.6719 39.0156
Q51.375 32.8125 51.375 23.2969
Q51.375 13.375 45.2344 5.79688
Q39.1094 -1.76562 25.6875 -1.76562
Q17.1406 -1.76562 10.5625 3.04688
Q4 7.85938 3.21875 17.8281
z
" id="Helvetica-35"/>
      </defs>
      <g style="fill:#262626;" transform="translate(39.14 294.706875)scale(0.24 -0.24)">
       <use xlink:href="#Helvetica-30"/>
       <use x="55.615234375" xlink:href="#Helvetica-2e"/>
       <use x="83.3984375" xlink:href="#Helvetica-33"/>
       <use x="139.013671875" xlink:href="#Helvetica-35"/>
      </g>
     </g>
    </g>
    <g id="ytick_3">
     <g id="line2d_5">
      <g>
       <use style="fill:#262626;stroke:#262626;" x="91.08" xlink:href="#m219da94a98" y="156.0"/>
      </g>
     </g>
     <g id="text_5">
      <!-- 0.36 -->
      <defs>
       <path d="
M29.25 70.2188
Q40.9688 70.2188 45.5781 64.1406
Q50.2031 58.0625 50.2031 51.6094
L41.5 51.6094
Q40.7188 55.7656 39.0156 58.1094
Q35.8438 62.5 29.3906 62.5
Q22.0156 62.5 17.6719 55.6875
Q13.3281 48.875 12.8438 36.1875
Q15.875 40.625 20.4531 42.8281
Q24.6562 44.7812 29.8281 44.7812
Q38.625 44.7812 45.1562 39.1562
Q51.7031 33.5469 51.7031 22.4062
Q51.7031 12.8906 45.5 5.53125
Q39.3125 -1.8125 27.8281 -1.8125
Q18.0156 -1.8125 10.8906 5.64062
Q3.76562 13.0938 3.76562 30.7188
Q3.76562 43.75 6.9375 52.8281
Q13.0312 70.2188 29.25 70.2188
z

M28.6094 6
Q35.5469 6 38.9844 10.6562
Q42.4375 15.3281 42.4375 21.6875
Q42.4375 27.0469 39.3594 31.9062
Q36.2812 36.7656 28.1719 36.7656
Q22.5156 36.7656 18.2344 33
Q13.9688 29.25 13.9688 21.6875
Q13.9688 15.0469 17.8438 10.5156
Q21.7344 6 28.6094 6
z
" id="Helvetica-36"/>
      </defs>
      <g style="fill:#262626;" transform="translate(39.06125 162.106875)scale(0.24 -0.24)">
       <use xlink:href="#Helvetica-30"/>
       <use x="55.615234375" xlink:href="#Helvetica-2e"/>
       <use x="83.3984375" xlink:href="#Helvetica-33"/>
       <use x="139.013671875" xlink:href="#Helvetica-36"/>
      </g>
     </g>
    </g>
    <g id="ytick_4">
     <g id="line2d_6">
      <g>
       <use style="fill:#262626;stroke:#262626;" x="91.08" xlink:href="#m219da94a98" y="23.4"/>
      </g>
     </g>
     <g id="text_6">
      <!-- 0.37 -->
      <defs>
       <path d="
M52.2969 68.75
L52.2969 61.0781
Q48.9219 57.8125 43.3281 49.7031
Q37.75 41.6094 33.4531 32.2344
Q29.2031 23.0938 27 15.5781
Q25.5938 10.75 23.3438 0
L13.625 0
Q16.9375 20.0156 28.2656 39.8438
Q34.9688 51.4688 42.3281 59.9062
L3.65625 59.9062
L3.65625 68.75
z
" id="Helvetica-37"/>
      </defs>
      <g style="fill:#262626;" transform="translate(38.91875 29.506875)scale(0.24 -0.24)">
       <use xlink:href="#Helvetica-30"/>
       <use x="55.615234375" xlink:href="#Helvetica-2e"/>
       <use x="83.3984375" xlink:href="#Helvetica-33"/>
       <use x="139.013671875" xlink:href="#Helvetica-37"/>
      </g>
     </g>
    </g>
    <g id="text_7">
     <!-- PSE -->
     <defs>
      <path d="
M8.54688 71.7344
L60.8438 71.7344
L60.8438 62.9375
L18.0156 62.9375
L18.0156 41.1562
L57.625 41.1562
L57.625 32.8594
L18.0156 32.8594
L18.0156 8.54688
L61.5781 8.54688
L61.5781 0
L8.54688 0
z

M35.0625 71.7344
z
" id="Helvetica-45"/>
     </defs>
     <g style="fill:#262626;" transform="translate(27.665625 250.265625)rotate(-90.0)scale(0.3 -0.3)">
      <use xlink:href="#Helvetica-50"/>
      <use x="66.69921875" xlink:href="#Helvetica-53"/>
      <use x="133.3984375" xlink:href="#Helvetica-45"/>
     </g>
    </g>
   </g>
   <g id="patch_3">
    <path clip-path="url(#p45c12b3cad)" d="
M105.732 4863.3
L222.948 4863.3
L222.948 217.526
L105.732 217.526
z
" style="fill:#0000cd;opacity:0.6;stroke:#000000;stroke-width:0.3;"/>
   </g>
   <g id="patch_4">
    <path clip-path="url(#p45c12b3cad)" d="
M252.252 4863.3
L369.468 4863.3
L369.468 101.953
L252.252 101.953
z
" style="fill:#e60000;opacity:0.6;stroke:#e60000;stroke-width:0.3;"/>
   </g>
   <g id="LineCollection_1">
    <defs>
     <path d="
M164.34 -212.895
L164.34 -288.053" id="C0_0_6b07ace47a"/>
     <path d="
M310.86 -328.942
L310.86 -403.151" id="C0_1_51abbbadbf"/>
    </defs>
    <g clip-path="url(#p45c12b3cad)">
     <use style="fill:none;stroke:#000000;stroke-width:3.0;" x="0.0" xlink:href="#C0_0_6b07ace47a" y="468.0"/>
    </g>
    <g clip-path="url(#p45c12b3cad)">
     <use style="fill:none;stroke:#000000;stroke-width:3.0;" x="0.0" xlink:href="#C0_1_51abbbadbf" y="468.0"/>
    </g>
   </g>
   <g id="line2d_7">
    <defs>
     <path d="
M3 1.83697e-16
L-3 -1.83697e-16" id="mf6afe704e8"/>
    </defs>
    <g clip-path="url(#p45c12b3cad)">
     <use x="164.34" xlink:href="#mf6afe704e8" y="255.104762592"/>
     <use x="310.86" xlink:href="#mf6afe704e8" y="139.057597347"/>
    </g>
   </g>
   <g id="line2d_8">
    <g clip-path="url(#p45c12b3cad)">
     <use x="164.34" xlink:href="#mf6afe704e8" y="179.947082592"/>
     <use x="310.86" xlink:href="#mf6afe704e8" y="64.8493333465"/>
    </g>
   </g>
   <g id="line2d_9">
    <path clip-path="url(#p45c12b3cad)" d="
M164.34 319.638" style="fill:none;opacity:0.85;"/>
    <defs>
     <path d="
M0 11
C2.91723 11 5.71538 9.84097 7.77817 7.77817
C9.84097 5.71538 11 2.91723 11 0
C11 -2.91723 9.84097 -5.71538 7.77817 -7.77817
C5.71538 -9.84097 2.91723 -11 0 -11
C-2.91723 -11 -5.71538 -9.84097 -7.77817 -7.77817
C-9.84097 -5.71538 -11 -2.91723 -11 0
C-11 2.91723 -9.84097 5.71538 -7.77817 7.77817
C-5.71538 9.84097 -2.91723 11 0 11
z
" id="ma446551154" style="stroke:#000080;stroke-width:2;"/>
    </defs>
    <g clip-path="url(#p45c12b3cad)">
     <use style="fill:#1975ff;opacity:0.85;stroke:#000080;stroke-width:2;" x="164.34" xlink:href="#ma446551154" y="319.638133813"/>
    </g>
   </g>
   <g id="line2d_10">
    <path clip-path="url(#p45c12b3cad)" d="
M310.86 135.372" style="fill:none;opacity:0.85;"/>
    <defs>
     <path d="
M0 11
C2.91723 11 5.71538 9.84097 7.77817 7.77817
C9.84097 5.71538 11 2.91723 11 0
C11 -2.91723 9.84097 -5.71538 7.77817 -7.77817
C5.71538 -9.84097 2.91723 -11 0 -11
C-2.91723 -11 -5.71538 -9.84097 -7.77817 -7.77817
C-9.84097 -5.71538 -11 -2.91723 -11 0
C-11 2.91723 -9.84097 5.71538 -7.77817 7.77817
C-5.71538 9.84097 -2.91723 11 0 11
z
" id="mf264e679c0" style="stroke:#b22222;stroke-width:2;"/>
    </defs>
    <g clip-path="url(#p45c12b3cad)">
     <use style="fill:#e6005c;opacity:0.85;stroke:#b22222;stroke-width:2;" x="310.86" xlink:href="#mf264e679c0" y="135.372007201"/>
    </g>
   </g>
   <g id="patch_5">
    <path d="
M91.08 421.2
L384.12 421.2" style="fill:none;stroke:#262626;stroke-width:1.25;"/>
   </g>
   <g id="patch_6">
    <path d="
M91.08 421.2
L91.08 23.4" style="fill:none;stroke:#262626;stroke-width:1.25;"/>
   </g>
  </g>
 </g>
 <defs>
  <clipPath id="p45c12b3cad">
   <rect height="397.8" width="293.04" x="91.08" y="23.4"/>
  </clipPath>
 </defs>
</svg>
