<?xml version="1.0" encoding="utf-8" standalone="no"?>
<!DOCTYPE svg PUBLIC "-//W3C//DTD SVG 1.1//EN"
  "http://www.w3.org/Graphics/SVG/1.1/DTD/svg11.dtd">
<!-- Created with matplotlib (http://matplotlib.org/) -->
<svg height="540pt" version="1.1" viewBox="0 0 540 540" width="540pt" xmlns="http://www.w3.org/2000/svg" xmlns:xlink="http://www.w3.org/1999/xlink">
 <defs>
  <style type="text/css">
*{stroke-linecap:butt;stroke-linejoin:round;}
  </style>
 </defs>
 <g id="figure_1">
  <g id="patch_1">
   <path d="
M0 540
L540 540
L540 0
L0 0
z
" style="fill:#ffffff;"/>
  </g>
  <g id="axes_1">
   <g id="patch_2">
    <path d="
M102.6 459
L529.2 459
L529.2 27
L102.6 27
z
" style="fill:#ffffff;"/>
   </g>
   <g id="matplotlib.axis_1">
    <g id="xtick_1">
     <g id="line2d_1">
      <defs>
       <path d="
M0 0
L0 0" id="m219da94a98" style="stroke:#262626;"/>
      </defs>
      <g>
       <use style="fill:#262626;stroke:#262626;" x="134.2" xlink:href="#m219da94a98" y="459.0"/>
      </g>
     </g>
     <g id="text_1">
      <!-- 200 -->
      <defs>
       <path d="
M3.125 0
Q3.60938 9.03125 6.85938 15.7188
Q10.1094 22.4062 19.5312 27.875
L28.9062 33.2969
Q35.2031 36.9688 37.75 39.5469
Q41.75 43.6094 41.75 48.8281
Q41.75 54.9375 38.0781 58.5156
Q34.4219 62.1094 28.3281 62.1094
Q19.2812 62.1094 15.8281 55.2812
Q13.9688 51.6094 13.7656 45.125
L4.82812 45.125
Q4.98438 54.25 8.20312 60.0156
Q13.9219 70.1719 28.375 70.1719
Q40.375 70.1719 45.9219 63.6719
Q51.4688 57.1719 51.4688 49.2188
Q51.4688 40.8281 45.5625 34.8594
Q42.1406 31.3906 33.2969 26.4688
L26.6094 22.75
Q21.8281 20.125 19.0938 17.7188
Q14.2031 13.4844 12.9375 8.29688
L51.125 8.29688
L51.125 0
L3.125 0
z
" id="Helvetica-32"/>
       <path d="
M27.0469 69.9219
Q40.625 69.9219 46.6875 58.7344
Q51.375 50.0938 51.375 35.0625
Q51.375 20.7969 47.125 11.4688
Q40.9688 -1.90625 27 -1.90625
Q14.4062 -1.90625 8.25 9.03125
Q3.125 18.1719 3.125 33.5469
Q3.125 45.4531 6.20312 54
Q11.9688 69.9219 27.0469 69.9219
z

M26.9531 6.10938
Q33.7969 6.10938 37.8438 12.1562
Q41.8906 18.2188 41.8906 34.7188
Q41.8906 46.625 38.9531 54.3125
Q36.0312 62.0156 27.5938 62.0156
Q19.8281 62.0156 16.2344 54.7031
Q12.6406 47.4062 12.6406 33.2031
Q12.6406 22.5156 14.9375 16.0156
Q18.4531 6.10938 26.9531 6.10938
z
" id="Helvetica-30"/>
      </defs>
      <g style="fill:#262626;" transform="translate(115.06375 483.21625)scale(0.24 -0.24)">
       <use xlink:href="#Helvetica-32"/>
       <use x="55.615234375" xlink:href="#Helvetica-30"/>
       <use x="111.23046875" xlink:href="#Helvetica-30"/>
      </g>
     </g>
    </g>
    <g id="xtick_2">
     <g id="line2d_2">
      <g>
       <use style="fill:#262626;stroke:#262626;" x="213.2" xlink:href="#m219da94a98" y="459.0"/>
      </g>
     </g>
     <g id="text_2">
      <!-- 250 -->
      <defs>
       <path d="
M12.3594 17.8281
Q13.2344 10.2969 19.3438 7.42188
Q22.4688 5.95312 26.5625 5.95312
Q34.375 5.95312 38.125 10.9375
Q41.8906 15.9219 41.8906 21.9688
Q41.8906 29.2969 37.4219 33.2969
Q32.9531 37.3125 26.7031 37.3125
Q22.1719 37.3125 18.9219 35.5469
Q15.6719 33.7969 13.375 30.6719
L5.76562 31.1094
L11.0781 68.75
L47.4062 68.75
L47.4062 60.25
L17.6719 60.25
L14.7031 40.8281
Q17.1406 42.6719 19.3438 43.6094
Q23.25 45.2188 28.375 45.2188
Q37.9844 45.2188 44.6719 39.0156
Q51.375 32.8125 51.375 23.2969
Q51.375 13.375 45.2344 5.79688
Q39.1094 -1.76562 25.6875 -1.76562
Q17.1406 -1.76562 10.5625 3.04688
Q4 7.85938 3.21875 17.8281
z
" id="Helvetica-35"/>
      </defs>
      <g style="fill:#262626;" transform="translate(194.06375 483.21625)scale(0.24 -0.24)">
       <use xlink:href="#Helvetica-32"/>
       <use x="55.615234375" xlink:href="#Helvetica-35"/>
       <use x="111.23046875" xlink:href="#Helvetica-30"/>
      </g>
     </g>
    </g>
    <g id="xtick_3">
     <g id="line2d_3">
      <g>
       <use style="fill:#262626;stroke:#262626;" x="292.2" xlink:href="#m219da94a98" y="459.0"/>
      </g>
     </g>
     <g id="text_3">
      <!-- 300 -->
      <defs>
       <path d="
M25.9844 -1.90625
Q13.5781 -1.90625 7.98438 4.90625
Q2.39062 11.7188 2.39062 21.4844
L11.5781 21.4844
Q12.1562 14.7031 14.1094 11.625
Q17.5312 6.10938 26.4688 6.10938
Q33.4062 6.10938 37.5938 9.8125
Q41.7969 13.5312 41.7969 19.3906
Q41.7969 26.6094 37.375 29.4844
Q32.9531 32.375 25.0938 32.375
Q24.2188 32.375 23.3125 32.3438
Q22.4062 32.3281 21.4844 32.2812
L21.4844 40.0469
Q22.8594 39.8906 23.7812 39.8438
Q24.7031 39.7969 25.7812 39.7969
Q30.7188 39.7969 33.8906 41.3594
Q39.4531 44.0938 39.4531 51.125
Q39.4531 56.3438 35.7344 59.1719
Q32.0312 62.0156 27.0938 62.0156
Q18.3125 62.0156 14.9375 56.1562
Q13.0938 52.9375 12.8438 46.9688
L4.15625 46.9688
Q4.15625 54.7812 7.28125 60.25
Q12.6406 70.0156 26.1719 70.0156
Q36.8594 70.0156 42.7188 65.25
Q48.5781 60.5 48.5781 51.4688
Q48.5781 45.0156 45.125 41.0156
Q42.9688 38.5312 39.5469 37.1094
Q45.0625 35.5938 48.1562 31.2656
Q51.2656 26.9531 51.2656 20.7031
Q51.2656 10.6875 44.6719 4.39062
Q38.0938 -1.90625 25.9844 -1.90625
z
" id="Helvetica-33"/>
      </defs>
      <g style="fill:#262626;" transform="translate(272.975625 483.21625)scale(0.24 -0.24)">
       <use xlink:href="#Helvetica-33"/>
       <use x="55.615234375" xlink:href="#Helvetica-30"/>
       <use x="111.23046875" xlink:href="#Helvetica-30"/>
      </g>
     </g>
    </g>
    <g id="xtick_4">
     <g id="line2d_4">
      <g>
       <use style="fill:#262626;stroke:#262626;" x="371.2" xlink:href="#m219da94a98" y="459.0"/>
      </g>
     </g>
     <g id="text_4">
      <!-- 350 -->
      <g style="fill:#262626;" transform="translate(351.975625 483.21625)scale(0.24 -0.24)">
       <use xlink:href="#Helvetica-33"/>
       <use x="55.615234375" xlink:href="#Helvetica-35"/>
       <use x="111.23046875" xlink:href="#Helvetica-30"/>
      </g>
     </g>
    </g>
    <g id="xtick_5">
     <g id="line2d_5">
      <g>
       <use style="fill:#262626;stroke:#262626;" x="450.2" xlink:href="#m219da94a98" y="459.0"/>
      </g>
     </g>
     <g id="text_5">
      <!-- 400 -->
      <defs>
       <path d="
M33.0625 24.75
L33.0625 56.4531
L10.6406 24.75
z

M33.2031 0
L33.2031 17.0938
L2.54688 17.0938
L2.54688 25.6875
L34.5781 70.125
L42 70.125
L42 24.75
L52.2969 24.75
L52.2969 17.0938
L42 17.0938
L42 0
z
" id="Helvetica-34"/>
      </defs>
      <g style="fill:#262626;" transform="translate(430.994375 483.21625)scale(0.24 -0.24)">
       <use xlink:href="#Helvetica-34"/>
       <use x="55.615234375" xlink:href="#Helvetica-30"/>
       <use x="111.23046875" xlink:href="#Helvetica-30"/>
      </g>
     </g>
    </g>
    <g id="text_6">
     <!-- SSD (ms) -->
     <defs>
      <path id="Helvetica-20"/>
      <path d="
M13.9688 23.1406
Q14.3125 17.0469 16.8438 13.2344
Q21.6875 6.10938 33.8906 6.10938
Q39.3594 6.10938 43.8438 7.67188
Q52.5469 10.6875 52.5469 18.5
Q52.5469 24.3594 48.875 26.8594
Q45.1719 29.2969 37.25 31.1094
L27.5469 33.2969
Q18.0156 35.4531 14.0625 38.0312
Q7.23438 42.5312 7.23438 51.4688
Q7.23438 61.1406 13.9219 67.3281
Q20.6094 73.5312 32.8594 73.5312
Q44.1406 73.5312 52.0156 68.0781
Q59.9062 62.6406 59.9062 50.6875
L50.7812 50.6875
Q50.0469 56.4531 47.6562 59.5156
Q43.2188 65.1406 32.5625 65.1406
Q23.9688 65.1406 20.2031 61.5156
Q16.4531 57.9062 16.4531 53.125
Q16.4531 47.8594 20.8438 45.4062
Q23.7344 43.8438 33.8906 41.5
L43.9531 39.2031
Q51.2188 37.5469 55.1719 34.6719
Q62.0156 29.6406 62.0156 20.0625
Q62.0156 8.15625 53.3438 3.03125
Q44.6719 -2.09375 33.2031 -2.09375
Q19.8281 -2.09375 12.25 4.73438
Q4.6875 11.5312 4.82812 23.1406
z

M33.5938 73.6875
z
" id="Helvetica-53"/>
      <path d="
M29.5938 72.9062
Q21.9219 58.0156 19.625 50.9844
Q16.1562 40.2812 16.1562 26.2656
Q16.1562 12.1094 20.125 0.390625
Q22.5625 -6.84375 29.7344 -20.4062
L23.8281 -20.4062
Q16.7031 -9.28125 14.9844 -6.20312
Q13.2812 -3.125 11.2812 2.15625
Q8.54688 9.375 7.46875 17.5781
Q6.9375 21.8281 6.9375 25.6875
Q6.9375 40.1406 11.4688 51.4219
Q14.3594 58.5938 23.4844 72.9062
z
" id="Helvetica-28"/>
      <path d="
M3.46875 -20.4062
Q11.2344 -5.28125 13.4844 1.65625
Q16.8906 12.1562 16.8906 26.2656
Q16.8906 40.375 12.9375 52.0938
Q10.5 59.3281 3.32812 72.9062
L9.23438 72.9062
Q16.75 60.8906 18.3281 58.0781
Q19.9219 55.2812 21.7812 50.3438
Q24.125 44.2344 25.125 38.2812
Q26.125 32.3281 26.125 26.8125
Q26.125 12.3594 21.5312 1.03125
Q18.6562 -6.25 9.57812 -20.4062
z
" id="Helvetica-29"/>
      <path d="
M11.6719 16.4062
Q12.0625 12.0156 13.875 9.67188
Q17.1875 5.42188 25.3906 5.42188
Q30.2812 5.42188 33.9844 7.54688
Q37.7031 9.67188 37.7031 14.1094
Q37.7031 17.4844 34.7188 19.2344
Q32.8125 20.3125 27.2031 21.7344
L20.2188 23.4844
Q13.5312 25.1406 10.3594 27.2031
Q4.6875 30.7656 4.6875 37.0625
Q4.6875 44.4844 10.0312 49.0625
Q15.375 53.6562 24.4219 53.6562
Q36.2344 53.6562 41.4531 46.7344
Q44.7344 42.3281 44.625 37.25
L36.3281 37.25
Q36.0781 40.2344 34.2344 42.6719
Q31.2031 46.1406 23.7344 46.1406
Q18.75 46.1406 16.1875 44.2344
Q13.625 42.3281 13.625 39.2031
Q13.625 35.7969 17 33.7344
Q18.9531 32.5156 22.75 31.5938
L28.5625 30.1719
Q38.0312 27.875 41.2656 25.7344
Q46.3906 22.3594 46.3906 15.1406
Q46.3906 8.15625 41.0938 3.07812
Q35.7969 -2 24.9531 -2
Q13.2812 -2 8.42188 3.29688
Q3.5625 8.59375 3.21875 16.4062
z

M24.6562 53.5625
z
" id="Helvetica-73"/>
      <path d="
M35.1562 8.29688
Q40.0938 8.29688 43.2656 9.32812
Q48.9219 11.2344 52.5469 16.6562
Q55.4219 21 56.6875 27.7812
Q57.4219 31.8438 57.4219 35.2969
Q57.4219 48.6406 52.125 56
Q46.8281 63.375 35.0625 63.375
L17.8281 63.375
L17.8281 8.29688
z

M8.0625 71.7344
L37.1094 71.7344
Q51.9062 71.7344 60.0625 61.2344
Q67.3281 51.7656 67.3281 36.9688
Q67.3281 25.5312 63.0312 16.3125
Q55.4688 0 37.0156 0
L8.0625 0
z
" id="Helvetica-44"/>
      <path d="
M6.45312 52.2969
L15.1406 52.2969
L15.1406 44.875
Q18.2656 48.7344 20.7969 50.4844
Q25.1406 53.4688 30.6719 53.4688
Q36.9219 53.4688 40.7188 50.3906
Q42.875 48.6406 44.625 45.2188
Q47.5625 49.4219 51.5156 51.4375
Q55.4688 53.4688 60.4062 53.4688
Q70.9531 53.4688 74.75 45.8438
Q76.8125 41.75 76.8125 34.8125
L76.8125 0
L67.6719 0
L67.6719 36.3281
Q67.6719 41.5469 65.0625 43.5
Q62.4531 45.4531 58.6875 45.4531
Q53.5156 45.4531 49.7812 41.9844
Q46.0469 38.5312 46.0469 30.4219
L46.0469 0
L37.1094 0
L37.1094 34.125
Q37.1094 39.4531 35.8438 41.8906
Q33.8438 45.5625 28.375 45.5625
Q23.3906 45.5625 19.3125 41.7031
Q15.2344 37.8438 15.2344 27.7344
L15.2344 0
L6.45312 0
z
" id="Helvetica-6d"/>
     </defs>
     <g style="fill:#262626;" transform="translate(251.98125 515.19375)scale(0.3 -0.3)">
      <use xlink:href="#Helvetica-53"/>
      <use x="66.69921875" xlink:href="#Helvetica-53"/>
      <use x="133.3984375" xlink:href="#Helvetica-44"/>
      <use x="205.615234375" xlink:href="#Helvetica-20"/>
      <use x="233.3984375" xlink:href="#Helvetica-28"/>
      <use x="266.69921875" xlink:href="#Helvetica-6d"/>
      <use x="350.0" xlink:href="#Helvetica-73"/>
      <use x="400.0" xlink:href="#Helvetica-29"/>
     </g>
    </g>
   </g>
   <g id="matplotlib.axis_2">
    <g id="ytick_1">
     <g id="line2d_6">
      <g>
       <use style="fill:#262626;stroke:#262626;" x="102.6" xlink:href="#m219da94a98" y="459.0"/>
      </g>
     </g>
     <g id="text_7">
      <!-- 0.00 -->
      <defs>
       <path d="
M8.54688 10.6406
L18.75 10.6406
L18.75 0
L8.54688 0
z
" id="Helvetica-2e"/>
      </defs>
      <g style="fill:#262626;" transform="translate(50.66 465.106875)scale(0.24 -0.24)">
       <use xlink:href="#Helvetica-30"/>
       <use x="55.615234375" xlink:href="#Helvetica-2e"/>
       <use x="83.3984375" xlink:href="#Helvetica-30"/>
       <use x="139.013671875" xlink:href="#Helvetica-30"/>
      </g>
     </g>
    </g>
    <g id="ytick_2">
     <g id="line2d_7">
      <g>
       <use style="fill:#262626;stroke:#262626;" x="102.6" xlink:href="#m219da94a98" y="376.714285714"/>
      </g>
     </g>
     <g id="text_8">
      <!-- 0.20 -->
      <g style="fill:#262626;" transform="translate(50.66 382.821160714)scale(0.24 -0.24)">
       <use xlink:href="#Helvetica-30"/>
       <use x="55.615234375" xlink:href="#Helvetica-2e"/>
       <use x="83.3984375" xlink:href="#Helvetica-32"/>
       <use x="139.013671875" xlink:href="#Helvetica-30"/>
      </g>
     </g>
    </g>
    <g id="ytick_3">
     <g id="line2d_8">
      <g>
       <use style="fill:#262626;stroke:#262626;" x="102.6" xlink:href="#m219da94a98" y="294.428571429"/>
      </g>
     </g>
     <g id="text_9">
      <!-- 0.40 -->
      <g style="fill:#262626;" transform="translate(50.66 300.535446429)scale(0.24 -0.24)">
       <use xlink:href="#Helvetica-30"/>
       <use x="55.615234375" xlink:href="#Helvetica-2e"/>
       <use x="83.3984375" xlink:href="#Helvetica-34"/>
       <use x="139.013671875" xlink:href="#Helvetica-30"/>
      </g>
     </g>
    </g>
    <g id="ytick_4">
     <g id="line2d_9">
      <g>
       <use style="fill:#262626;stroke:#262626;" x="102.6" xlink:href="#m219da94a98" y="212.142857143"/>
      </g>
     </g>
     <g id="text_10">
      <!-- 0.60 -->
      <defs>
       <path d="
M29.25 70.2188
Q40.9688 70.2188 45.5781 64.1406
Q50.2031 58.0625 50.2031 51.6094
L41.5 51.6094
Q40.7188 55.7656 39.0156 58.1094
Q35.8438 62.5 29.3906 62.5
Q22.0156 62.5 17.6719 55.6875
Q13.3281 48.875 12.8438 36.1875
Q15.875 40.625 20.4531 42.8281
Q24.6562 44.7812 29.8281 44.7812
Q38.625 44.7812 45.1562 39.1562
Q51.7031 33.5469 51.7031 22.4062
Q51.7031 12.8906 45.5 5.53125
Q39.3125 -1.8125 27.8281 -1.8125
Q18.0156 -1.8125 10.8906 5.64062
Q3.76562 13.0938 3.76562 30.7188
Q3.76562 43.75 6.9375 52.8281
Q13.0312 70.2188 29.25 70.2188
z

M28.6094 6
Q35.5469 6 38.9844 10.6562
Q42.4375 15.3281 42.4375 21.6875
Q42.4375 27.0469 39.3594 31.9062
Q36.2812 36.7656 28.1719 36.7656
Q22.5156 36.7656 18.2344 33
Q13.9688 29.25 13.9688 21.6875
Q13.9688 15.0469 17.8438 10.5156
Q21.7344 6 28.6094 6
z
" id="Helvetica-36"/>
      </defs>
      <g style="fill:#262626;" transform="translate(50.66 218.249732143)scale(0.24 -0.24)">
       <use xlink:href="#Helvetica-30"/>
       <use x="55.615234375" xlink:href="#Helvetica-2e"/>
       <use x="83.3984375" xlink:href="#Helvetica-36"/>
       <use x="139.013671875" xlink:href="#Helvetica-30"/>
      </g>
     </g>
    </g>
    <g id="ytick_5">
     <g id="line2d_10">
      <g>
       <use style="fill:#262626;stroke:#262626;" x="102.6" xlink:href="#m219da94a98" y="129.857142857"/>
      </g>
     </g>
     <g id="text_11">
      <!-- 0.80 -->
      <defs>
       <path d="
M27.2031 40.625
Q33.0156 40.625 36.2812 43.875
Q39.5469 47.125 39.5469 51.6094
Q39.5469 55.5156 36.4219 58.7812
Q33.2969 62.0625 26.9062 62.0625
Q20.5625 62.0625 17.7188 58.7812
Q14.8906 55.5156 14.8906 51.125
Q14.8906 46.1875 18.5469 43.4062
Q22.2188 40.625 27.2031 40.625
z

M27.7344 6
Q33.8438 6 37.8594 9.29688
Q41.8906 12.5938 41.8906 19.1406
Q41.8906 25.9219 37.7344 29.4375
Q33.5938 32.9531 27.0938 32.9531
Q20.7969 32.9531 16.8125 29.3594
Q12.8438 25.7812 12.8438 19.4375
Q12.8438 13.9688 16.4844 9.98438
Q20.125 6 27.7344 6
z

M15.2344 37.25
Q11.5781 38.8125 9.51562 40.9219
Q5.67188 44.8281 5.67188 51.0781
Q5.67188 58.8906 11.3281 64.5
Q17 70.125 27.3906 70.125
Q37.4531 70.125 43.1562 64.8125
Q48.875 59.5156 48.875 52.4375
Q48.875 45.9062 45.5625 41.8438
Q43.7031 39.5469 39.7969 37.3594
Q44.1406 35.3594 46.625 32.7656
Q51.2656 27.875 51.2656 20.0625
Q51.2656 10.8438 45.0625 4.42188
Q38.875 -2 27.5469 -2
Q17.3281 -2 10.2656 3.53125
Q3.21875 9.07812 3.21875 19.625
Q3.21875 25.8281 6.25 30.3438
Q9.28125 34.8594 15.2344 37.25
z
" id="Helvetica-38"/>
      </defs>
      <g style="fill:#262626;" transform="translate(50.66 135.964017857)scale(0.24 -0.24)">
       <use xlink:href="#Helvetica-30"/>
       <use x="55.615234375" xlink:href="#Helvetica-2e"/>
       <use x="83.3984375" xlink:href="#Helvetica-38"/>
       <use x="139.013671875" xlink:href="#Helvetica-30"/>
      </g>
     </g>
    </g>
    <g id="ytick_6">
     <g id="line2d_11">
      <g>
       <use style="fill:#262626;stroke:#262626;" x="102.6" xlink:href="#m219da94a98" y="47.5714285714"/>
      </g>
     </g>
     <g id="text_12">
      <!-- 1.00 -->
      <defs>
       <path d="
M9.57812 49.5156
L9.57812 56.25
Q19.0938 57.1719 22.8438 59.3438
Q26.6094 61.5312 28.4688 69.625
L35.4062 69.625
L35.4062 0
L26.0312 0
L26.0312 49.5156
z
" id="Helvetica-31"/>
      </defs>
      <g style="fill:#262626;" transform="translate(52.20875 53.6783035714)scale(0.24 -0.24)">
       <use xlink:href="#Helvetica-31"/>
       <use x="55.615234375" xlink:href="#Helvetica-2e"/>
       <use x="83.3984375" xlink:href="#Helvetica-30"/>
       <use x="139.013671875" xlink:href="#Helvetica-30"/>
      </g>
     </g>
    </g>
    <g id="text_13">
     <!-- P(Stop) -->
     <defs>
      <path d="
M27.2031 5.67188
Q35.9375 5.67188 39.1875 12.2812
Q42.4375 18.8906 42.4375 27
Q42.4375 34.3281 40.0938 38.9219
Q36.375 46.1406 27.2969 46.1406
Q19.2344 46.1406 15.5781 39.9844
Q11.9219 33.8438 11.9219 25.1406
Q11.9219 16.7969 15.5781 11.2344
Q19.2344 5.67188 27.2031 5.67188
z

M27.5469 53.8125
Q37.6406 53.8125 44.625 47.0625
Q51.6094 40.3281 51.6094 27.25
Q51.6094 14.5938 45.4531 6.34375
Q39.3125 -1.90625 26.375 -1.90625
Q15.5781 -1.90625 9.21875 5.39062
Q2.875 12.7031 2.875 25
Q2.875 38.1875 9.5625 46
Q16.2656 53.8125 27.5469 53.8125
z

M27.25 53.5625
z
" id="Helvetica-6f"/>
      <path d="
M8.20312 66.8906
L17.0938 66.8906
L17.0938 52.2969
L25.4375 52.2969
L25.4375 45.125
L17.0938 45.125
L17.0938 10.9844
Q17.0938 8.25 18.9531 7.32812
Q19.9688 6.78125 22.3594 6.78125
Q23 6.78125 23.7344 6.8125
Q24.4688 6.84375 25.4375 6.9375
L25.4375 0
Q23.9219 -0.4375 22.2812 -0.625
Q20.6562 -0.828125 18.75 -0.828125
Q12.5938 -0.828125 10.3906 2.3125
Q8.20312 5.46875 8.20312 10.5
L8.20312 45.125
L1.125 45.125
L1.125 52.2969
L8.20312 52.2969
z
" id="Helvetica-74"/>
      <path d="
M8.54688 71.7344
L40.8281 71.7344
Q50.3906 71.7344 56.25 66.3281
Q62.1094 60.9375 62.1094 51.1719
Q62.1094 42.7812 56.875 36.5469
Q51.6562 30.3281 40.8281 30.3281
L18.2656 30.3281
L18.2656 0
L8.54688 0
z

M52.2969 51.125
Q52.2969 59.0312 46.4375 61.8594
Q43.2188 63.375 37.5938 63.375
L18.2656 63.375
L18.2656 38.5312
L37.5938 38.5312
Q44.1406 38.5312 48.2188 41.3125
Q52.2969 44.0938 52.2969 51.125
z
" id="Helvetica-50"/>
      <path d="
M28.5156 5.90625
Q34.6719 5.90625 38.75 11.0625
Q42.8281 16.2188 42.8281 26.4688
Q42.8281 32.7188 41.0156 37.2031
Q37.5938 45.8438 28.5156 45.8438
Q19.3906 45.8438 16.0156 36.7188
Q14.2031 31.8438 14.2031 24.3125
Q14.2031 18.2656 16.0156 14.0156
Q19.4375 5.90625 28.5156 5.90625
z

M5.76562 52.0469
L14.3125 52.0469
L14.3125 45.125
Q16.9375 48.6875 20.0625 50.6406
Q24.5156 53.5625 30.5156 53.5625
Q39.4062 53.5625 45.6094 46.75
Q51.8125 39.9375 51.8125 27.2969
Q51.8125 10.2031 42.875 2.875
Q37.2031 -1.76562 29.6875 -1.76562
Q23.7812 -1.76562 19.7812 0.828125
Q17.4375 2.29688 14.5469 5.85938
L14.5469 -20.8438
L5.76562 -20.8438
z
" id="Helvetica-70"/>
     </defs>
     <g style="fill:#262626;" transform="translate(34.406875 291.4921875)rotate(-90.0)scale(0.3 -0.3)">
      <use xlink:href="#Helvetica-50"/>
      <use x="66.69921875" xlink:href="#Helvetica-28"/>
      <use x="100.0" xlink:href="#Helvetica-53"/>
      <use x="166.69921875" xlink:href="#Helvetica-74"/>
      <use x="194.482421875" xlink:href="#Helvetica-6f"/>
      <use x="250.09765625" xlink:href="#Helvetica-70"/>
      <use x="305.712890625" xlink:href="#Helvetica-29"/>
     </g>
    </g>
   </g>
   <g id="line2d_12">
    <path clip-path="url(#p37acc459c8)" d="
M102.597 49.8933
L132.517 50.2063
L153.312 50.6363
L169.351 51.1826
L182.458 51.8456
L193.519 52.6218
L203.142 53.515
L211.659 54.5242
L219.347 55.6562
L226.315 56.9038
L232.731 58.2754
L238.704 59.7786
L244.29 61.4136
L249.544 63.1835
L254.521 65.0956
L259.222 67.1381
L263.757 69.3512
L268.126 71.7329
L272.33 74.2784
L276.422 77.0187
L280.404 79.9542
L284.276 83.0834
L288.092 86.4533
L291.852 90.0708
L295.558 93.9414
L299.263 98.1341
L302.969 102.666
L306.674 107.554
L310.38 112.812
L314.14 118.542
L317.901 124.68
L321.717 131.332
L325.644 138.631
L329.681 146.614
L333.829 155.317
L338.143 164.892
L342.678 175.507
L347.545 187.48
L352.854 201.151
L358.883 217.309
L366.46 238.293
L387.918 298.109
L393.946 314.029
L399.256 327.437
L404.123 339.136
L408.658 349.473
L413.027 358.883
L417.23 367.41
L421.267 375.106
L425.249 382.22
L429.121 388.687
L432.937 394.636
L436.698 400.095
L440.458 405.169
L444.219 409.871
L447.98 414.218
L451.741 418.229
L455.557 421.975
L459.373 425.412
L463.244 428.606
L467.226 431.602
L471.264 434.365
L475.411 436.936
L479.725 439.347
L484.15 441.566
L488.795 443.645
L493.607 445.555
L498.695 447.335
L504.06 448.974
L509.756 450.481
L515.895 451.87
L522.476 453.13
L529.224 454.211
L529.224 454.211" style="fill:none;opacity:0.39;stroke:#0000cd;stroke-linecap:round;stroke-width:8;"/>
   </g>
   <g id="line2d_13">
    <path clip-path="url(#p37acc459c8)" d="
M134.2 50.04
L213.2 54.9771
L292.2 90.36
L371.2 251.64
L450.2 416.623" style="fill:none;"/>
    <defs>
     <path d="
M0 4.5
C1.19341 4.5 2.33811 4.02585 3.18198 3.18198
C4.02585 2.33811 4.5 1.19341 4.5 0
C4.5 -1.19341 4.02585 -2.33811 3.18198 -3.18198
C2.33811 -4.02585 1.19341 -4.5 0 -4.5
C-1.19341 -4.5 -2.33811 -4.02585 -3.18198 -3.18198
C-4.02585 -2.33811 -4.5 -1.19341 -4.5 0
C-4.5 1.19341 -4.02585 2.33811 -3.18198 3.18198
C-2.33811 4.02585 -1.19341 4.5 0 4.5
z
" id="mc42fe2a4a3"/>
    </defs>
    <g clip-path="url(#p37acc459c8)">
     <use style="fill:#0000cd;" x="134.2" xlink:href="#mc42fe2a4a3" y="50.04"/>
     <use style="fill:#0000cd;" x="213.2" xlink:href="#mc42fe2a4a3" y="54.9771428571"/>
     <use style="fill:#0000cd;" x="292.2" xlink:href="#mc42fe2a4a3" y="90.36"/>
     <use style="fill:#0000cd;" x="371.2" xlink:href="#mc42fe2a4a3" y="251.64"/>
     <use style="fill:#0000cd;" x="450.2" xlink:href="#mc42fe2a4a3" y="416.622857143"/>
    </g>
   </g>
   <g id="line2d_14">
    <path clip-path="url(#p37acc459c8)" d="
M102.597 50.4546
L139.541 50.7095
L163.046 51.0825
L180.467 51.5726
L194.349 52.1786
L205.908 52.8998
L215.863 53.7394
L224.601 54.696
L232.399 55.7701
L239.423 56.9576
L245.893 58.2743
L251.866 59.7146
L257.452 61.2896
L262.651 62.9838
L267.573 64.8188
L272.274 66.808
L276.754 68.944
L281.068 71.247
L285.216 73.7122
L289.253 76.3701
L293.18 79.2211
L297.051 82.3096
L300.812 85.594
L304.517 89.123
L308.223 92.9613
L311.873 97.0627
L315.523 101.499
L319.173 106.285
L322.879 111.517
L326.584 117.138
L330.345 123.249
L334.161 129.877
L338.088 137.149
L342.125 145.101
L346.328 153.882
L350.697 163.53
L355.343 174.335
L360.376 186.612
L366.017 200.974
L372.875 219.074
L385.208 252.406
L394.168 276.285
L400.417 292.321
L405.782 305.491
L410.649 316.862
L415.184 326.906
L419.498 335.93
L423.645 344.099
L427.683 351.561
L431.609 358.355
L435.426 364.521
L439.186 370.186
L442.947 375.452
L446.653 380.263
L450.358 384.716
L454.063 388.826
L457.824 392.666
L461.585 396.19
L465.401 399.464
L469.273 402.495
L473.255 405.33
L477.292 407.933
L481.495 410.377
L485.809 412.628
L490.289 414.715
L494.99 416.658
L499.912 418.451
L505.11 420.105
L510.641 421.628
L516.559 423.024
L522.919 424.292
L529.224 425.349
L529.224 425.349" style="fill:none;opacity:0.39;stroke:#e60000;stroke-linecap:round;stroke-width:8;"/>
   </g>
   <g id="line2d_15">
    <path clip-path="url(#p37acc459c8)" d="
M134.2 50.4514
L213.2 53.7429
L292.2 78.4286
L371.2 214.611
L450.2 384.531" style="fill:none;"/>
    <defs>
     <path d="
M0 4.5
C1.19341 4.5 2.33811 4.02585 3.18198 3.18198
C4.02585 2.33811 4.5 1.19341 4.5 0
C4.5 -1.19341 4.02585 -2.33811 3.18198 -3.18198
C2.33811 -4.02585 1.19341 -4.5 0 -4.5
C-1.19341 -4.5 -2.33811 -4.02585 -3.18198 -3.18198
C-4.02585 -2.33811 -4.5 -1.19341 -4.5 0
C-4.5 1.19341 -4.02585 2.33811 -3.18198 3.18198
C-2.33811 4.02585 -1.19341 4.5 0 4.5
z
" id="m0ce308e366"/>
    </defs>
    <g clip-path="url(#p37acc459c8)">
     <use style="fill:#e60000;" x="134.2" xlink:href="#m0ce308e366" y="50.4514285714"/>
     <use style="fill:#e60000;" x="213.2" xlink:href="#m0ce308e366" y="53.7428571429"/>
     <use style="fill:#e60000;" x="292.2" xlink:href="#m0ce308e366" y="78.4285714286"/>
     <use style="fill:#e60000;" x="371.2" xlink:href="#m0ce308e366" y="214.611428571"/>
     <use style="fill:#e60000;" x="450.2" xlink:href="#m0ce308e366" y="384.531428571"/>
    </g>
   </g>
   <g id="line2d_16">
    <path clip-path="url(#p37acc459c8)" d="
M102.597 46.0856
L136.886 46.3327
L158.4 46.6986
L174.218 47.1809
L186.772 47.7786
L197.225 48.4929
L206.184 49.3228
L214.037 50.2687
L221.061 51.3349
L227.421 52.5224
L233.229 53.8298
L238.593 55.2622
L243.626 56.8353
L248.327 58.5362
L252.751 60.3699
L257.01 62.3758
L261.047 64.5218
L264.974 66.8625
L268.735 69.3629
L272.385 72.0548
L275.98 74.9841
L279.464 78.1084
L282.893 81.4785
L286.322 85.1623
L289.695 89.1132
L293.069 93.4074
L296.443 98.0634
L299.816 103.099
L303.245 108.621
L306.73 114.664
L310.269 121.26
L313.864 128.437
L317.569 136.341
L321.386 145.013
L325.368 154.621
L329.571 165.351
L334.106 177.548
L339.139 191.741
L345.056 209.125
L353.407 234.426
L365.685 271.571
L371.658 288.9
L376.746 302.992
L381.337 315.058
L385.595 325.634
L389.633 335.071
L393.504 343.559
L397.209 351.159
L400.86 358.144
L404.399 364.446
L407.883 370.206
L411.368 375.54
L414.797 380.39
L418.226 384.86
L421.654 388.97
L425.083 392.74
L428.568 396.243
L432.107 399.488
L435.702 402.481
L439.352 405.232
L443.113 407.789
L446.984 410.151
L450.966 412.322
L455.114 414.331
L459.483 416.199
L464.074 417.916
L468.941 419.496
L474.084 420.932
L479.615 422.244
L485.643 423.441
L492.224 424.517
L499.469 425.472
L507.599 426.316
L516.835 427.046
L527.62 427.669
L529.224 427.745
L529.224 427.745" style="fill:none;stroke:#1975ff;stroke-dasharray:6.000000,6.000000;stroke-dashoffset:0.0;stroke-width:4.5;"/>
   </g>
   <g id="line2d_17">
    <path clip-path="url(#p37acc459c8)" d="
M134.2 47.5714
L213.2 48.6443
L292.2 92.5543
L371.2 287.527
L450.2 411.95" style="fill:none;opacity:0.3;"/>
    <defs>
     <path d="
M0 10
C2.65203 10 5.1958 8.94634 7.07107 7.07107
C8.94634 5.1958 10 2.65203 10 0
C10 -2.65203 8.94634 -5.1958 7.07107 -7.07107
C5.1958 -8.94634 2.65203 -10 0 -10
C-2.65203 -10 -5.1958 -8.94634 -7.07107 -7.07107
C-8.94634 -5.1958 -10 -2.65203 -10 0
C-10 2.65203 -8.94634 5.1958 -7.07107 7.07107
C-5.1958 8.94634 -2.65203 10 0 10
z
" id="mdee8e8314d" style="stroke:#1975ff;stroke-width:2.4;"/>
    </defs>
    <g clip-path="url(#p37acc459c8)">
     <use style="fill:none;stroke:#1975ff;stroke-width:2.4;" x="134.2" xlink:href="#mdee8e8314d" y="47.5714285714"/>
     <use style="fill:none;stroke:#1975ff;stroke-width:2.4;" x="213.2" xlink:href="#mdee8e8314d" y="48.644254051"/>
     <use style="fill:none;stroke:#1975ff;stroke-width:2.4;" x="292.2" xlink:href="#mdee8e8314d" y="92.5542857143"/>
     <use style="fill:none;stroke:#1975ff;stroke-width:2.4;" x="371.2" xlink:href="#mdee8e8314d" y="287.52718894"/>
     <use style="fill:none;stroke:#1975ff;stroke-width:2.4;" x="450.2" xlink:href="#mdee8e8314d" y="411.949718642"/>
    </g>
   </g>
   <g id="line2d_18">
    <path clip-path="url(#p37acc459c8)" d="
M102.597 45.986
L138.601 46.2424
L161.608 46.6174
L178.642 47.1085
L192.247 47.7165
L203.585 48.44
L213.319 49.2789
L221.891 50.2373
L229.523 51.3103
L236.436 52.5029
L242.796 53.8239
L248.659 55.2668
L254.134 56.8422
L259.277 58.5532
L264.144 60.4071
L268.735 62.3916
L273.159 64.547
L277.418 66.871
L281.51 69.3585
L285.492 72.0403
L289.364 74.9167
L293.124 77.9856
L296.83 81.2942
L300.48 84.8488
L304.13 88.7155
L307.725 92.8465
L311.32 97.3148
L314.915 102.136
L318.565 107.407
L322.215 113.069
L325.921 119.227
L329.737 126.008
L333.608 133.345
L337.59 141.369
L341.738 150.231
L346.107 160.099
L350.753 171.151
L355.841 183.847
L361.593 198.822
L368.672 217.909
L391.458 279.844
L397.154 294.388
L402.187 306.642
L406.833 317.379
L411.202 326.926
L415.35 335.47
L419.387 343.283
L423.314 350.403
L427.13 356.868
L430.89 362.809
L434.596 368.254
L438.301 373.305
L441.952 377.911
L445.602 382.166
L449.307 386.145
L453.013 389.799
L456.773 393.196
L460.59 396.343
L464.461 399.248
L468.443 401.957
L472.536 404.47
L476.739 406.789
L481.108 408.945
L485.643 410.934
L490.399 412.776
L495.432 414.484
L500.741 416.049
L506.383 417.478
L512.466 418.789
L519.047 419.977
L526.237 421.046
L529.224 421.431
L529.224 421.431" style="fill:none;stroke:#e6005c;stroke-dasharray:6.000000,6.000000;stroke-dashoffset:0.0;stroke-width:4.5;"/>
   </g>
   <g id="line2d_19">
    <path clip-path="url(#p37acc459c8)" d="
M134.2 47.5714
L213.2 47.5714
L292.2 77.5714
L371.2 224.776
L450.2 387.068" style="fill:none;opacity:0.3;"/>
    <defs>
     <path d="
M0 10
C2.65203 10 5.1958 8.94634 7.07107 7.07107
C8.94634 5.1958 10 2.65203 10 0
C10 -2.65203 8.94634 -5.1958 7.07107 -7.07107
C5.1958 -8.94634 2.65203 -10 0 -10
C-2.65203 -10 -5.1958 -8.94634 -7.07107 -7.07107
C-8.94634 -5.1958 -10 -2.65203 -10 0
C-10 2.65203 -8.94634 5.1958 -7.07107 7.07107
C-5.1958 8.94634 -2.65203 10 0 10
z
" id="m6daf11314e" style="stroke:#e6005c;stroke-width:2.4;"/>
    </defs>
    <g clip-path="url(#p37acc459c8)">
     <use style="fill:none;stroke:#e6005c;stroke-width:2.4;" x="134.2" xlink:href="#m6daf11314e" y="47.5714285714"/>
     <use style="fill:none;stroke:#e6005c;stroke-width:2.4;" x="213.2" xlink:href="#m6daf11314e" y="47.5714285714"/>
     <use style="fill:none;stroke:#e6005c;stroke-width:2.4;" x="292.2" xlink:href="#m6daf11314e" y="77.5714285714"/>
     <use style="fill:none;stroke:#e6005c;stroke-width:2.4;" x="371.2" xlink:href="#m6daf11314e" y="224.776397516"/>
     <use style="fill:none;stroke:#e6005c;stroke-width:2.4;" x="450.2" xlink:href="#m6daf11314e" y="387.068117313"/>
    </g>
   </g>
   <g id="patch_3">
    <path d="
M102.6 459
L529.2 459" style="fill:none;stroke:#262626;stroke-width:1.25;"/>
   </g>
   <g id="patch_4">
    <path d="
M102.6 459
L102.6 27" style="fill:none;stroke:#262626;stroke-width:1.25;"/>
   </g>
   <g id="legend_1">
    <g id="line2d_20">
     <path d="
M124.2 321.341
L172.2 321.341" style="fill:none;opacity:0.39;stroke:#0000cd;stroke-linecap:round;stroke-width:8;"/>
    </g>
    <g id="line2d_21"/>
    <g id="text_14">
     <!-- EmpBSL -->
     <defs>
      <path d="
M34.5781 41.4062
Q40.7188 41.4062 44.1406 43.1094
Q49.5156 45.7969 49.5156 52.7812
Q49.5156 59.8125 43.7969 62.25
Q40.5781 63.625 34.2344 63.625
L16.8906 63.625
L16.8906 41.4062
z

M37.8438 8.29688
Q46.7812 8.29688 50.5938 13.4844
Q52.9844 16.75 52.9844 21.3906
Q52.9844 29.2031 46 32.0312
Q42.2812 33.5469 36.1875 33.5469
L16.8906 33.5469
L16.8906 8.29688
z

M7.375 71.7344
L38.1875 71.7344
Q50.7812 71.7344 56.1094 64.2031
Q59.2344 59.7656 59.2344 53.9531
Q59.2344 47.1719 55.375 42.8281
Q53.375 40.5312 49.6094 38.625
Q55.125 36.5312 57.8594 33.8906
Q62.7031 29.2031 62.7031 20.9531
Q62.7031 14.0156 58.3438 8.40625
Q51.8594 0 37.7031 0
L7.375 0
z
" id="Helvetica-42"/>
      <path d="
M7.625 71.7344
L17.3281 71.7344
L17.3281 8.54688
L53.6562 8.54688
L53.6562 0
L7.625 0
z
" id="Helvetica-4c"/>
      <path d="
M8.54688 71.7344
L60.8438 71.7344
L60.8438 62.9375
L18.0156 62.9375
L18.0156 41.1562
L57.625 41.1562
L57.625 32.8594
L18.0156 32.8594
L18.0156 8.54688
L61.5781 8.54688
L61.5781 0
L8.54688 0
z

M35.0625 71.7344
z
" id="Helvetica-45"/>
     </defs>
     <g style="fill:#262626;" transform="translate(191.4 329.74125)scale(0.24 -0.24)">
      <use xlink:href="#Helvetica-45"/>
      <use x="66.69921875" xlink:href="#Helvetica-6d"/>
      <use x="150.0" xlink:href="#Helvetica-70"/>
      <use x="205.615234375" xlink:href="#Helvetica-42"/>
      <use x="272.314453125" xlink:href="#Helvetica-53"/>
      <use x="339.013671875" xlink:href="#Helvetica-4c"/>
     </g>
    </g>
    <g id="line2d_22">
     <path d="
M124.2 355.56
L172.2 355.56" style="fill:none;opacity:0.39;stroke:#e60000;stroke-linecap:round;stroke-width:8;"/>
    </g>
    <g id="line2d_23"/>
    <g id="text_15">
     <!-- EmpPNL -->
     <defs>
      <path d="
M7.625 71.7344
L19.0938 71.7344
L55.3281 13.625
L55.3281 71.7344
L64.5469 71.7344
L64.5469 0
L53.6562 0
L16.8906 58.0625
L16.8906 0
L7.625 0
z

M35.4531 71.7344
z
" id="Helvetica-4e"/>
     </defs>
     <g style="fill:#262626;" transform="translate(191.4 363.96)scale(0.24 -0.24)">
      <use xlink:href="#Helvetica-45"/>
      <use x="66.69921875" xlink:href="#Helvetica-6d"/>
      <use x="150.0" xlink:href="#Helvetica-70"/>
      <use x="205.615234375" xlink:href="#Helvetica-50"/>
      <use x="272.314453125" xlink:href="#Helvetica-4e"/>
      <use x="344.53125" xlink:href="#Helvetica-4c"/>
     </g>
    </g>
    <g id="line2d_24">
     <path d="
M124.2 389.779
L172.2 389.779" style="fill:none;stroke:#1975ff;stroke-dasharray:6.000000,6.000000;stroke-dashoffset:0.0;stroke-width:4.5;"/>
    </g>
    <g id="line2d_25"/>
    <g id="text_16">
     <!-- SimBSL -->
     <defs>
      <path d="
M6.45312 52.0469
L15.375 52.0469
L15.375 0
L6.45312 0
z

M6.45312 71.7344
L15.375 71.7344
L15.375 61.7656
L6.45312 61.7656
z
" id="Helvetica-69"/>
     </defs>
     <g style="fill:#262626;" transform="translate(191.4 398.17875)scale(0.24 -0.24)">
      <use xlink:href="#Helvetica-53"/>
      <use x="66.69921875" xlink:href="#Helvetica-69"/>
      <use x="88.916015625" xlink:href="#Helvetica-6d"/>
      <use x="172.216796875" xlink:href="#Helvetica-42"/>
      <use x="238.916015625" xlink:href="#Helvetica-53"/>
      <use x="305.615234375" xlink:href="#Helvetica-4c"/>
     </g>
    </g>
    <g id="line2d_26">
     <path d="
M124.2 423.998
L172.2 423.998" style="fill:none;stroke:#e6005c;stroke-dasharray:6.000000,6.000000;stroke-dashoffset:0.0;stroke-width:4.5;"/>
    </g>
    <g id="line2d_27"/>
    <g id="text_17">
     <!-- SimPNL -->
     <g style="fill:#262626;" transform="translate(191.4 432.3975)scale(0.24 -0.24)">
      <use xlink:href="#Helvetica-53"/>
      <use x="66.69921875" xlink:href="#Helvetica-69"/>
      <use x="88.916015625" xlink:href="#Helvetica-6d"/>
      <use x="172.216796875" xlink:href="#Helvetica-50"/>
      <use x="238.916015625" xlink:href="#Helvetica-4e"/>
      <use x="311.1328125" xlink:href="#Helvetica-4c"/>
     </g>
    </g>
   </g>
  </g>
 </g>
 <defs>
  <clipPath id="p37acc459c8">
   <rect height="432.0" width="426.6" x="102.6" y="27.0"/>
  </clipPath>
 </defs>
</svg>
